# xmcd
#
# Track frame offsets:
#	150
#	23819
#	41172
#	59751
#	77051
#	94714
#	112735
#	127837
#	145088
#	164951
#	182539
#	198609
#	217960
#	233932
#	250262
#	266918
#	291896
#	309404
#	339233
#
# Disc length: 4770 seconds
#
# Revision: 0
# Processed by: cddbd v1.5.2PL0 Copyright (c) Steve Scherf et al.
# Submitted via: dBpowerAMP V4.0
#
DISCID=1712a013
DTITLE=George Benson - Greatest Hits
DYEAR=2007
DGENRE=Blues
TTITLE0=Inside Love
TTITLE1=Turn Your Love Around
TTITLE2=Nothing's Gonna Change My Love
TTITLE3=Stephanie
TTITLE4=Give Me The Night
TTITLE5=Lady Love Me One More Time
TTITLE6=In Your Eyes
TTITLE7=Love X Love
TTITLE8=Feel Like Making Love
TTITLE9=Kisses In The Moonlight
TTITLE10=Midnight Love Affair
TTITLE11=Love Ballad
TTITLE12=Breezin
TTITLE13=Shiver
TTITLE14=Never Give Up On A Good Thing
TTITLE15=The Greatest Love Of All
TTITLE16=On Broadway (live)
TTITLE17=Living Inside Your Love
TTITLE18=20 20
EXTD=
EXTT0=
EXTT1=
EXTT2=
EXTT3=
EXTT4=
EXTT5=
EXTT6=
EXTT7=
EXTT8=
EXTT9=
EXTT10=
EXTT11=
EXTT12=
EXTT13=
EXTT14=
EXTT15=
EXTT16=
EXTT17=
EXTT18=
PLAYORDER=
